
<svg width="60px" height="120px" viewBox="-13 -192 60 120" version="1.1" xmlns="http://www.w3.org/2000/svg" xmlns:xlink="http://www.w3.org/1999/xlink">
    <!-- Generator: Sketch 41.2 (35397) - http://www.bohemiancoding.com/sketch -->
    <desc>Created with Sketch.</desc>
    <defs></defs>
    <g id="Group" stroke="none" stroke-width="1" fill="none" fill-rule="evenodd" transform="translate(17.000000, -132.000000) scale(-1, -1) translate(-17.000000, 132.000000) translate(-13.000000, -192.000000)">
        <path d="M3.50769231,116.630265 C1.56923077,114.945398 0,112.979719 0,112.418097 C0,111.856474 2.4,108.767551 5.44615385,105.585023 C8.4,102.402496 11.8153846,98.6583463 13.0153846,97.2542902 C14.2153846,95.9438378 18.1846154,91.5444618 21.6923077,87.5195008 C25.2923077,83.4945398 30.4615385,77.6911076 33.2307692,74.6021841 C36,71.4196568 39.9692308,67.1138846 42.1846154,64.8673947 C44.4,62.6209048 46.1538462,60.4680187 46.1538462,60.0936037 C46.1538462,59.625585 44.4,57.4726989 42.1846154,55.226209 C39.9692308,52.9797192 35.9076923,48.5803432 33.1384615,45.3978159 C30.3692308,42.3088924 25.2923077,36.5054602 21.6923077,32.4804992 C18.1846154,28.4555382 14.2153846,24.0561622 13.0153846,22.7457098 C11.8153846,21.3416537 8.4,17.5975039 5.44615385,14.4149766 C2.4,11.2324493 0,8.14352574 0,7.58190328 C0,7.02028081 1.56923077,5.05460218 3.41538462,3.36973479 C6.83076923,0.187207488 9.23076923,-0.842433697 9.23076923,0.936037441 C9.23076923,1.40405616 10.6153846,3.27613105 12.2769231,5.05460218 C13.8461538,6.83307332 16.1538462,9.45397816 17.3538462,10.7644306 C18.4615385,12.1684867 21.6,15.725429 24.2769231,18.6271451 C26.8615385,21.6224649 32.0307692,27.3322933 35.5384615,31.3572543 C47.5384615,44.9297972 53.0769231,51.1076443 56.5846154,54.7581903 C58.4307692,56.8174727 60,59.1575663 60,60 C60,60.8424337 58.4307692,63.1825273 56.5846154,65.2418097 C53.0769231,68.8923557 47.5384615,75.0702028 35.5384615,88.6427457 C32.0307692,92.6677067 26.8615385,98.3775351 24.2769231,101.372855 C21.6,104.274571 18.4615385,107.831513 17.3538462,109.235569 C16.1538462,110.546022 13.8461538,113.166927 12.2769231,115.039002 C10.6153846,117.00468 9.23076923,118.783151 9.23076923,119.25117 C9.23076923,120.842434 6.73846154,119.719189 3.50769231,116.630265 Z" id="Shape" fill="#987c3b"></path>
    </g>
</svg>
